<?xml version="1.0" encoding="UTF-8"?>
<svg xmlns="http://www.w3.org/2000/svg" xmlns:xlink="http://www.w3.org/1999/xlink" width="100px" height="67px" viewBox="0 0 100 67" version="1.1">
<g id="surface1">
<path style=" stroke:none;fill-rule:nonzero;fill:rgb(0.392157%,43.529412%,81.568629%);fill-opacity:1;" d="M 27.722656 11.167969 L 72.167969 11.167969 L 72.167969 35.277344 L 69.96875 38.734375 L 72.167969 41.808594 L 72.167969 55.832031 L 27.722656 55.832031 L 27.722656 33.101562 L 29.097656 31.515625 L 27.722656 29.992188 Z M 27.722656 11.167969 "/>
<path style=" stroke:none;fill-rule:nonzero;fill:rgb(100%,100%,100%);fill-opacity:1;" d="M 36.351562 42.292969 L 36.351562 35.277344 L 43.738281 35.277344 L 44.53125 36.316406 L 45.351562 35.277344 L 72.167969 35.277344 L 72.167969 41.808594 C 72.167969 41.808594 71.464844 42.285156 70.65625 42.292969 L 55.804688 42.292969 L 54.910156 41.1875 L 54.910156 42.292969 L 51.984375 42.292969 L 51.984375 40.40625 C 51.984375 40.40625 51.582031 40.667969 50.71875 40.667969 L 49.722656 40.667969 L 49.722656 42.292969 L 45.289062 42.292969 L 44.496094 41.230469 L 43.691406 42.292969 Z M 27.722656 29.992188 L 29.386719 26.089844 L 32.269531 26.089844 L 33.214844 28.277344 L 33.214844 26.089844 L 36.796875 26.089844 L 37.359375 27.671875 L 37.90625 26.089844 L 53.984375 26.089844 L 53.984375 26.882812 C 53.984375 26.882812 54.828125 26.089844 56.21875 26.089844 L 61.433594 26.109375 L 62.363281 28.265625 L 62.363281 26.089844 L 65.359375 26.089844 L 66.1875 27.328125 L 66.1875 26.089844 L 69.210938 26.089844 L 69.210938 33.101562 L 66.1875 33.101562 L 65.394531 31.859375 L 65.394531 33.101562 L 60.992188 33.101562 L 60.546875 31.996094 L 59.363281 31.996094 L 58.929688 33.101562 L 55.941406 33.101562 C 54.746094 33.101562 53.984375 32.324219 53.984375 32.324219 L 53.984375 33.101562 L 49.480469 33.101562 L 48.585938 31.996094 L 48.585938 33.101562 L 31.84375 33.101562 L 31.402344 31.996094 L 30.21875 31.996094 L 29.78125 33.101562 L 27.722656 33.101562 Z M 27.722656 29.992188 "/>
<path style=" stroke:none;fill-rule:nonzero;fill:rgb(0.392157%,43.529412%,81.568629%);fill-opacity:1;" d="M 29.976562 26.953125 L 27.730469 32.207031 L 29.195312 32.207031 L 29.609375 31.152344 L 32.019531 31.152344 L 32.429688 32.207031 L 33.925781 32.207031 L 31.683594 26.953125 Z M 30.808594 28.175781 L 31.542969 30.015625 L 30.074219 30.015625 Z M 34.082031 32.203125 L 34.082031 26.953125 L 36.160156 26.960938 L 37.371094 30.347656 L 38.550781 26.953125 L 40.613281 26.953125 L 40.613281 32.203125 L 39.304688 32.203125 L 39.304688 28.335938 L 37.921875 32.203125 L 36.777344 32.203125 L 35.386719 28.335938 L 35.386719 32.203125 Z M 41.507812 32.203125 L 41.507812 26.953125 L 45.769531 26.953125 L 45.769531 28.128906 L 42.824219 28.128906 L 42.824219 29.027344 L 45.699219 29.027344 L 45.699219 30.132812 L 42.824219 30.132812 L 42.824219 31.066406 L 45.769531 31.066406 L 45.769531 32.203125 Z M 46.523438 26.953125 L 46.523438 32.207031 L 47.832031 32.207031 L 47.832031 30.339844 L 48.378906 30.339844 L 49.945312 32.207031 L 51.542969 32.207031 L 49.824219 30.269531 C 50.53125 30.210938 51.257812 29.601562 51.257812 28.65625 C 51.257812 27.554688 50.394531 26.953125 49.429688 26.953125 Z M 47.832031 28.128906 L 49.324219 28.128906 C 49.683594 28.128906 49.941406 28.410156 49.941406 28.683594 C 49.941406 29.03125 49.605469 29.234375 49.34375 29.234375 L 47.832031 29.234375 Z M 53.125 32.203125 L 51.789062 32.203125 L 51.789062 26.953125 L 53.125 26.953125 Z M 56.285156 32.203125 L 56 32.203125 C 54.605469 32.203125 53.761719 31.101562 53.761719 29.601562 C 53.761719 28.0625 54.597656 26.953125 56.355469 26.953125 L 57.800781 26.953125 L 57.800781 28.199219 L 56.300781 28.199219 C 55.589844 28.199219 55.082031 28.757812 55.082031 29.613281 C 55.082031 30.628906 55.660156 31.058594 56.492188 31.058594 L 56.835938 31.058594 Z M 59.128906 26.953125 L 56.882812 32.207031 L 58.34375 32.207031 L 58.757812 31.152344 L 61.167969 31.152344 L 61.582031 32.207031 L 63.078125 32.207031 L 60.832031 26.953125 Z M 59.960938 28.175781 L 60.695312 30.015625 L 59.222656 30.015625 Z M 63.230469 32.203125 L 63.230469 26.953125 L 64.890625 26.953125 L 67.011719 30.253906 L 67.011719 26.953125 L 68.316406 26.953125 L 68.316406 32.203125 L 66.710938 32.203125 L 64.535156 28.820312 L 64.535156 32.203125 Z M 37.242188 41.394531 L 37.242188 36.144531 L 41.507812 36.144531 L 41.507812 37.316406 L 38.5625 37.316406 L 38.5625 38.214844 L 41.4375 38.214844 L 41.4375 39.320312 L 38.5625 39.320312 L 38.5625 40.253906 L 41.507812 40.253906 L 41.507812 41.394531 Z M 58.128906 41.394531 L 58.128906 36.144531 L 62.390625 36.144531 L 62.390625 37.316406 L 59.449219 37.316406 L 59.449219 38.214844 L 62.308594 38.214844 L 62.308594 39.320312 L 59.449219 39.320312 L 59.449219 40.253906 L 62.390625 40.253906 L 62.390625 41.394531 Z M 41.671875 41.394531 L 43.746094 38.800781 L 41.621094 36.144531 L 43.269531 36.144531 L 44.53125 37.785156 L 45.804688 36.144531 L 47.382812 36.144531 L 45.289062 38.769531 L 47.367188 41.394531 L 45.722656 41.394531 L 44.492188 39.777344 L 43.292969 41.394531 Z M 47.519531 36.144531 L 47.519531 41.394531 L 48.863281 41.394531 L 48.863281 39.734375 L 50.238281 39.734375 C 51.398438 39.734375 52.28125 39.117188 52.28125 37.910156 C 52.28125 36.910156 51.589844 36.144531 50.40625 36.144531 Z M 48.863281 37.332031 L 50.308594 37.332031 C 50.6875 37.332031 50.953125 37.5625 50.953125 37.9375 C 50.953125 38.285156 50.6875 38.539062 50.304688 38.539062 L 48.863281 38.539062 Z M 52.847656 36.144531 L 52.847656 41.394531 L 54.15625 41.394531 L 54.15625 39.527344 L 54.707031 39.527344 L 56.269531 41.394531 L 57.867188 41.394531 L 56.148438 39.460938 C 56.855469 39.398438 57.582031 38.789062 57.582031 37.847656 C 57.582031 36.742188 56.71875 36.144531 55.757812 36.144531 Z M 54.15625 37.316406 L 55.648438 37.316406 C 56.007812 37.316406 56.265625 37.597656 56.265625 37.871094 C 56.265625 38.21875 55.929688 38.421875 55.667969 38.421875 L 54.15625 38.421875 Z M 62.996094 41.394531 L 62.996094 40.253906 L 65.609375 40.253906 C 65.996094 40.253906 66.164062 40.042969 66.164062 39.8125 C 66.164062 39.59375 65.996094 39.371094 65.609375 39.371094 L 64.429688 39.371094 C 63.402344 39.371094 62.832031 38.742188 62.832031 37.796875 C 62.832031 36.953125 63.355469 36.144531 64.878906 36.144531 L 67.421875 36.144531 L 66.875 37.324219 L 64.671875 37.324219 C 64.253906 37.324219 64.125 37.546875 64.125 37.757812 C 64.125 37.976562 64.285156 38.214844 64.605469 38.214844 L 65.84375 38.214844 C 66.988281 38.214844 67.484375 38.867188 67.484375 39.722656 C 67.484375 40.640625 66.929688 41.394531 65.78125 41.394531 Z M 67.789062 41.394531 L 67.789062 40.253906 L 70.402344 40.253906 C 70.789062 40.253906 70.957031 40.042969 70.957031 39.8125 C 70.957031 39.59375 70.792969 39.371094 70.402344 39.371094 L 69.222656 39.371094 C 68.195312 39.371094 67.625 38.742188 67.625 37.796875 C 67.625 36.953125 68.148438 36.144531 69.671875 36.144531 L 72.21875 36.144531 L 71.667969 37.324219 L 69.46875 37.324219 C 69.046875 37.324219 68.917969 37.546875 68.917969 37.757812 C 68.917969 37.976562 69.078125 38.214844 69.398438 38.214844 L 70.636719 38.214844 C 71.78125 38.214844 72.277344 38.867188 72.277344 39.722656 C 72.277344 40.640625 71.722656 41.394531 70.574219 41.394531 Z M 67.789062 41.394531 "/>
</g>
</svg>
