<?xml version="1.0" encoding="UTF-8"?>
<svg xmlns="http://www.w3.org/2000/svg" xmlns:xlink="http://www.w3.org/1999/xlink" width="337px" height="225px" viewBox="0 0 337 225" version="1.1">
<defs>
<clipPath id="clip1">
  <path d="M 38 70 L 299 70 L 299 155 L 38 155 Z M 38 70 "/>
</clipPath>
<clipPath id="clip2">
  <path d="M 172.953125 97.382812 C 172.804688 109.0625 183.34375 115.578125 191.285156 119.453125 C 199.445312 123.429688 202.183594 125.980469 202.152344 129.535156 C 202.089844 134.976562 195.644531 137.375 189.613281 137.46875 C 179.085938 137.632812 172.96875 134.625 168.105469 132.347656 L 164.3125 150.113281 C 169.195312 152.367188 178.230469 154.332031 187.605469 154.417969 C 209.601562 154.417969 223.996094 143.542969 224.074219 126.679688 C 224.160156 105.28125 194.515625 104.097656 194.71875 94.53125 C 194.789062 91.628906 197.550781 88.535156 203.609375 87.75 C 206.605469 87.351562 214.878906 87.046875 224.257812 91.375 L 227.941406 74.183594 C 222.898438 72.34375 216.414062 70.582031 208.339844 70.582031 C 187.632812 70.582031 173.070312 81.605469 172.953125 97.382812 M 263.320312 72.0625 C 259.304688 72.0625 255.917969 74.410156 254.40625 78.011719 L 222.984375 153.15625 L 244.964844 153.15625 L 249.339844 141.046875 L 276.203125 141.046875 L 278.742188 153.15625 L 298.117188 153.15625 L 281.210938 72.0625 L 263.320312 72.0625 M 266.394531 93.96875 L 272.738281 124.417969 L 255.367188 124.417969 L 266.394531 93.96875 M 146.300781 72.0625 L 128.972656 153.15625 L 149.921875 153.15625 L 167.238281 72.0625 L 146.300781 72.0625 M 115.3125 72.0625 L 93.507812 127.257812 L 84.6875 80.328125 C 83.652344 75.085938 79.566406 72.0625 75.027344 72.0625 L 39.382812 72.0625 L 38.886719 74.417969 C 46.203125 76.007812 54.515625 78.574219 59.550781 81.316406 C 62.636719 82.992188 63.515625 84.457031 64.527344 88.441406 L 81.230469 153.15625 L 103.371094 153.15625 L 137.308594 72.0625 L 115.3125 72.0625 "/>
</clipPath>
<linearGradient id="linear0" gradientUnits="userSpaceOnUse" x1="0" y1="0" x2="1" y2="0" gradientTransform="matrix(218.476044,-80.58085,80.461471,218.800193,62.367816,151.869646)">
<stop offset="0" style="stop-color:rgb(13.333333%,13.72549%,34.117647%);stop-opacity:1;"/>
<stop offset="1" style="stop-color:rgb(14.509804%,29.019608%,64.705882%);stop-opacity:1;"/>
</linearGradient>
</defs>
<g id="surface1">
<g clip-path="url(#clip1)" clip-rule="nonzero">
<g clip-path="url(#clip2)" clip-rule="nonzero">
<path style=" stroke:none;fill-rule:nonzero;fill:url(#linear0);" d="M 11.738281 80.59375 L 267.160156 -13.609375 L 325.265625 144.40625 L 69.847656 238.613281 "/>
</g>
</g>
</g>
</svg>
